<mxfile host="app.diagrams.net" modified="2024-01-16T17:48:37.760Z" agent="Mozilla/5.0 (Windows NT 10.0; Win64; x64) AppleWebKit/537.36 (KHTML, like Gecko) Chrome/120.0.0.0 Safari/537.36" etag="jfRJXc62hYwdwDI3Q_2B" version="22.1.18" type="device">
  <diagram id="prtHgNgQTEPvFCAcTncT" name="Page-1">
    <mxGraphModel dx="548" dy="327" grid="1" gridSize="10" guides="1" tooltips="1" connect="1" arrows="1" fold="1" page="1" pageScale="1" pageWidth="827" pageHeight="1169" math="0" shadow="0">
      <root>
        <mxCell id="0" />
        <mxCell id="1" parent="0" />
        <mxCell id="FFVz2CKMZXDEGPBVcJut-1" value="Create franchise" style="swimlane;html=1;childLayout=stackLayout;resizeParent=1;resizeParentMax=0;horizontal=1;startSize=20;horizontalStack=0;whiteSpace=wrap;" vertex="1" parent="1">
          <mxGeometry x="150" y="280" width="480" height="380" as="geometry" />
        </mxCell>
        <mxCell id="FFVz2CKMZXDEGPBVcJut-2" value="graphql_app" style="swimlane;html=1;startSize=20;horizontal=0;" vertex="1" parent="FFVz2CKMZXDEGPBVcJut-1">
          <mxGeometry y="20" width="480" height="120" as="geometry" />
        </mxCell>
        <mxCell id="FFVz2CKMZXDEGPBVcJut-3" value="grcp_app" style="swimlane;html=1;startSize=20;horizontal=0;" vertex="1" parent="FFVz2CKMZXDEGPBVcJut-1">
          <mxGeometry y="140" width="480" height="120" as="geometry" />
        </mxCell>
        <mxCell id="FFVz2CKMZXDEGPBVcJut-4" value="franchise web page" style="swimlane;html=1;startSize=20;horizontal=0;" vertex="1" parent="FFVz2CKMZXDEGPBVcJut-1">
          <mxGeometry y="260" width="480" height="120" as="geometry" />
        </mxCell>
      </root>
    </mxGraphModel>
  </diagram>
</mxfile>
